Coordinates
version=1
nRows=21
nColumns=12
inDegrees=yes

Units are S.I. units (second, meters, Newtons, ...)
Angles are in degrees

endheader
time	SC_y	SC_z	SC_x	AC_y	AC_z	AC_x	GH_y	GH_z	GH_yy	EL_x	PS_y
       0.0              -16.55          18.54          44.26          58.78         -15.18          7.079          51.47         -2.734         -70.46          30.73          77.66
   0.04779              -16.55          18.54          44.26          58.78         -15.18           7.08          51.48         -2.734         -70.42          30.74          77.66
   0.09558              -16.56          18.53          44.27          58.78         -15.17          7.081          51.49         -2.733         -70.39          30.75          77.67
    0.1434              -16.56          18.53          44.27          58.78         -15.17          7.082          51.49         -2.733         -70.35          30.77          77.67
    0.1912              -16.57          18.53          44.27          58.78         -15.16          7.084           51.5         -2.733         -70.31          30.78          77.67
     0.239              -16.58          18.53          44.27          58.77         -15.16          7.085          51.51         -2.732         -70.27           30.8          77.68
    0.2867              -16.58          18.53          44.28          58.77         -15.15          7.086          51.52         -2.732         -70.22          30.81          77.68
    0.3345              -16.59          18.52          44.28          58.77         -15.15          7.088          51.53         -2.731         -70.17          30.83          77.69
    0.3823               -16.6          18.52          44.28          58.77         -15.14          7.089          51.54         -2.731         -70.12          30.85          77.69
    0.4301              -16.61          18.52          44.28          58.77         -15.14          7.091          51.55          -2.73         -70.07          30.87           77.7
    0.4779              -16.62          18.51          44.29          58.77         -15.13          7.093          51.56          -2.73         -70.01          30.89           77.7
    0.5257              -16.63          18.51          44.29          58.77         -15.12          7.095          51.58         -2.729         -69.94          30.92          77.71
    0.5735              -16.64          18.51           44.3          58.76         -15.12          7.097          51.59         -2.729         -69.87          30.94          77.72
    0.6213              -16.65           18.5           44.3          58.76         -15.11          7.099          51.61         -2.728          -69.8          30.97          77.73
    0.6691              -16.66           18.5           44.3          58.76          -15.1          7.102          51.62         -2.727         -69.72           31.0          77.73
    0.7169              -16.68          18.49          44.31          58.76         -15.09          7.104          51.64         -2.726         -69.63          31.03          77.74
    0.7646              -16.69          18.49          44.32          58.76         -15.08          7.107          51.66         -2.726         -69.53          31.07          77.75
    0.8124              -16.71          18.48          44.32          58.75         -15.07           7.11          51.68         -2.725         -69.43           31.1          77.76
    0.8602              -16.73          18.48          44.33          58.75         -15.06          7.114           51.7         -2.724         -69.31          31.15          77.77
     0.908              -16.75          18.47          44.34          58.75         -15.04          7.118          51.73         -2.722         -69.19          31.19          77.79
    0.9558              -16.77          18.46          44.34          58.74         -15.03          7.122          51.76         -2.721         -69.05          31.24           77.8
